<svg width="793" height="976" viewBox="0 0 793 976" fill="none" xmlns="http://www.w3.org/2000/svg">
<rect x="-5.5" y="0.5" width="793" height="975" stroke="black"/>
<mask id="mask0_114_30" style="mask-type:alpha" maskUnits="userSpaceOnUse" x="-8" y="-2" width="798" height="980">
<path d="M783.997 416.709L788.5 907.46L788.504 907.894L788.076 907.959L340.794 976.494L340.734 976.504L340.674 976.498L124.037 956.988L123.824 956.969L123.69 956.801L-6.3916 793.218L-6.50391 793.075L-6.5 792.895L12.0117 14.9961L12.0225 14.5645L12.4502 14.5117L134.527 -0.496094L134.696 -0.516602L134.843 -0.430664L272.93 81.1113L273.169 81.252L273.176 81.5293L279.68 349.667L279.682 349.757L279.652 349.842L185.115 623.916C184.197 641.595 182.623 668.322 180.878 691.143C180.004 702.567 179.088 713.017 178.189 720.863C177.74 724.785 177.293 728.065 176.858 730.493C176.641 731.706 176.425 732.717 176.21 733.492C176.103 733.879 175.994 734.216 175.882 734.493C175.773 734.764 175.65 735.007 175.505 735.188C173.581 737.592 172.35 741.491 171.348 745.625C170.36 749.7 169.593 754.02 168.584 757.046C167.597 760.007 166.978 763.223 166.668 766.01C166.357 768.812 166.364 771.126 166.599 772.298C166.814 773.375 166.766 774.644 166.63 775.77C166.493 776.901 166.263 777.928 166.089 778.536L161.131 798.363L170.943 820.437L235.308 823.902C235.885 822.323 236.69 820.041 237.365 817.93C237.729 816.793 238.054 815.711 238.288 814.817C238.527 813.902 238.654 813.242 238.654 812.916C238.654 811.272 238.994 808.837 239.161 807.832L239.162 807.829C239.581 805.397 240.386 801.551 241.438 797.907C241.965 796.085 242.555 794.306 243.194 792.774C243.829 791.253 244.527 789.938 245.282 789.075C246.965 787.152 248.189 784.354 248.93 781.763C249.298 780.472 249.543 779.248 249.665 778.23C249.789 777.194 249.778 776.425 249.676 776.019C249.525 775.417 249.572 774.646 249.69 773.854C249.811 773.047 250.02 772.151 250.239 771.273C250.461 770.386 250.692 769.527 250.87 768.751C251.05 767.969 251.162 767.33 251.162 766.893V756.656L251.339 756.506L293.866 720.487L294.083 720.304L294.352 720.396C299.95 722.318 308.35 725.527 315.357 728.911C318.858 730.602 322.031 732.345 324.336 734.003C325.487 734.831 326.44 735.651 327.11 736.446C327.772 737.232 328.21 738.054 328.21 738.879C328.21 744.133 326.868 752.477 326.2 755.98L326.196 755.998C325.369 759.636 323.707 769.637 323.707 780.399C323.707 790.994 327.273 801.184 329.104 805.07L370.71 831.814L487.349 741.105L528.782 483.544C526.033 482.285 519.197 479.395 511.168 476.719C500.592 473.194 492.988 467.126 490.556 465.667C489.933 465.293 489.432 464.592 489.023 463.795C488.608 462.983 488.253 462.004 487.956 460.989C487.366 458.97 486.988 456.753 486.817 455.315L483.315 434.305L483.291 434.158L483.35 434.022L505.364 383.497L505.396 383.422L505.451 383.362L555.482 327.833L555.598 327.706L555.767 327.676L721.871 298.161L722.058 298.128L722.219 298.226L783.758 335.745L783.997 335.892V416.709Z" fill="#D9D9D9" stroke="black"/>
</mask>
<g mask="url(#mask0_114_30)">
<path d="M432.776 679.848C459.793 624.82 470.8 308.158 730.464 357.683C938.195 397.303 912.412 693.689 873.554 836.929" stroke="url(#paint0_linear_114_30)" stroke-width="59"/>
<path d="M-6 48.0245C12.8452 37.0188 85.5812 37.2118 153.1 123.563C217.641 206.105 268.673 322.165 161.606 504.258C83.9971 636.25 135.089 762.865 207.134 784.402C304.195 813.416 405.759 734.876 432.776 679.848" stroke="url(#paint1_linear_114_30)" stroke-width="59"/>
<path d="M-340.21 484.248C-310.192 499.589 -234.944 546.28 -174.106 610.313C-98.058 690.354 -2.99808 890.456 239.154 846.434C432.876 811.215 460.294 511.595 449.787 366.188" stroke="#1C1E1C" stroke-opacity="0.2" stroke-width="59"/>
</g>
<defs>
<linearGradient id="paint0_linear_114_30" x1="688.938" y1="311.159" x2="497.337" y2="479.268" gradientUnits="userSpaceOnUse">
<stop stop-color="#E4CB0A"/>
<stop offset="1" stop-color="#1D2400"/>
</linearGradient>
<linearGradient id="paint1_linear_114_30" x1="209.135" y1="212.609" x2="315.678" y2="773.401" gradientUnits="userSpaceOnUse">
<stop stop-color="#E4CB0A"/>
<stop offset="1" stop-color="#1D2400"/>
</linearGradient>
</defs>
</svg>
