<svg width="313" height="311" viewBox="0 0 313 311" fill="none" xmlns="http://www.w3.org/2000/svg">
<g filter="url(#filter0_f_1_244)">
<ellipse cx="156.5" cy="155.5" rx="56.5" ry="55.5" fill="#E4CB0A" fill-opacity="0.1"/>
</g>
<ellipse cx="138" cy="170.5" rx="87" ry="29.5" fill="url(#paint0_linear_1_244)" fill-opacity="0.05"/>
<g filter="url(#filter1_d_1_244)">
<path fill-rule="evenodd" clip-rule="evenodd" d="M114.8 107.498C114.8 102.976 116.089 98.5495 118.511 94.7504C120.934 90.9514 124.387 87.941 128.456 86.0806C132.526 84.2201 137.038 83.5886 141.453 84.2618C145.868 84.935 149.998 86.8843 153.346 89.8759C156.695 92.8674 159.12 96.7741 160.33 101.127C161.541 105.48 161.486 110.095 160.173 114.417C158.859 118.739 156.341 122.585 152.923 125.494C149.504 128.403 145.33 130.251 140.9 130.817V163.312C140.9 164.091 140.594 164.838 140.051 165.389C139.507 165.94 138.769 166.25 138 166.25C137.231 166.25 136.493 165.94 135.949 165.389C135.406 164.838 135.1 164.091 135.1 163.312V130.823C129.491 130.107 124.333 127.341 120.595 123.045C116.858 118.749 114.797 113.219 114.8 107.492V107.498ZM129.259 157.872C129.385 158.64 129.205 159.427 128.758 160.061C128.311 160.694 127.634 161.122 126.876 161.25C122.746 161.943 119.452 162.983 117.277 164.146C116.476 164.534 115.75 165.061 115.131 165.703C114.99 165.858 114.878 166.037 114.8 166.232V166.25L114.812 166.297L114.904 166.491C115.132 166.832 115.416 167.13 115.745 167.372C116.702 168.136 118.268 168.958 120.461 169.693C124.817 171.161 131.017 172.125 138 172.125C144.983 172.125 151.183 171.167 155.539 169.693C157.732 168.952 159.298 168.136 160.255 167.372C160.586 167.131 160.872 166.832 161.101 166.491L161.188 166.297L161.2 166.25V166.226C161.122 166.031 161.01 165.852 160.869 165.697C160.25 165.057 159.523 164.532 158.723 164.146C156.543 162.983 153.254 161.943 149.124 161.25C148.74 161.197 148.369 161.067 148.035 160.866C147.702 160.666 147.411 160.399 147.18 160.083C146.95 159.767 146.784 159.407 146.694 159.024C146.603 158.642 146.589 158.245 146.653 157.857C146.717 157.469 146.857 157.098 147.065 156.766C147.272 156.434 147.544 156.148 147.863 155.924C148.182 155.7 148.543 155.543 148.923 155.463C149.303 155.383 149.695 155.381 150.076 155.457C154.542 156.203 158.497 157.384 161.426 158.947C164.1 160.375 167 162.725 167 166.25C167 168.753 165.492 170.668 163.845 171.99C162.163 173.329 159.901 174.416 157.372 175.268C152.28 176.989 145.43 178 138 178C130.57 178 123.72 176.989 118.628 175.268C116.099 174.416 113.837 173.329 112.155 171.99C110.508 170.668 109 168.753 109 166.25C109 162.731 111.9 160.375 114.574 158.947C117.503 157.384 121.458 156.203 125.924 155.457C126.683 155.33 127.46 155.512 128.085 155.965C128.711 156.418 129.133 157.104 129.259 157.872Z" fill="#E4CB0A"/>
<path d="M161.7 166.13L161.664 166.04C161.564 165.79 161.421 165.56 161.24 165.361L161.229 165.35C160.572 164.672 159.804 164.115 158.958 163.705H158.959C156.713 162.507 153.367 161.455 149.207 160.757L149.2 160.756L149.192 160.755L148.957 160.71C148.724 160.654 148.5 160.562 148.293 160.438C148.017 160.272 147.775 160.052 147.584 159.789C147.393 159.527 147.256 159.227 147.181 158.909C147.105 158.591 147.094 158.261 147.146 157.938C147.199 157.616 147.316 157.307 147.488 157.031C147.661 156.756 147.886 156.518 148.15 156.333C148.414 156.148 148.712 156.018 149.025 155.952C149.339 155.886 149.663 155.884 149.978 155.947L149.985 155.949L149.993 155.95C154.429 156.691 158.326 157.86 161.19 159.388C163.843 160.804 166.5 163.028 166.5 166.25C166.5 168.534 165.125 170.321 163.533 171.599C161.913 172.889 159.711 173.952 157.212 174.794C152.184 176.494 145.391 177.5 138 177.5C130.609 177.5 123.816 176.494 118.788 174.794L117.865 174.468C115.899 173.739 114.152 172.863 112.777 171.838L112.467 171.599C110.875 170.321 109.5 168.534 109.5 166.25C109.5 163.034 112.157 160.804 114.81 159.388C117.495 157.955 121.088 156.838 125.182 156.094L126.007 155.95C126.632 155.845 127.275 155.996 127.792 156.37C128.245 156.698 128.57 157.175 128.715 157.717L128.766 157.953C128.87 158.592 128.721 159.247 128.35 159.772C127.979 160.298 127.418 160.651 126.792 160.757C122.633 161.455 119.281 162.507 117.041 163.705C116.195 164.117 115.426 164.676 114.771 165.356L114.766 165.362L114.76 165.367C114.579 165.566 114.436 165.796 114.336 166.046L114.3 166.136V166.311L114.314 166.369L114.326 166.417L114.339 166.467L114.36 166.513L114.453 166.706L114.469 166.738L114.488 166.768C114.744 167.151 115.064 167.487 115.434 167.762V167.763C116.453 168.576 118.078 169.421 120.302 170.166C124.721 171.656 130.978 172.625 138 172.625C144.584 172.625 150.494 171.779 154.85 170.44L155.699 170.166C157.908 169.42 159.528 168.586 160.549 167.776C160.927 167.5 161.255 167.159 161.517 166.769L161.54 166.734L161.558 166.695L161.645 166.501L161.663 166.46L161.674 166.417L161.686 166.369L161.7 166.311V166.13ZM135.6 130.383L135.163 130.327C129.677 129.627 124.631 126.921 120.973 122.717C117.316 118.514 115.298 113.102 115.3 107.498C115.3 103.071 116.562 98.7378 118.933 95.0195C121.303 91.3012 124.683 88.3552 128.664 86.5352C132.645 84.7152 137.06 84.0974 141.378 84.7559C145.696 85.4144 149.736 87.3218 153.013 90.249C156.289 93.1763 158.663 96.9994 159.849 101.261C161.034 105.522 160.981 110.04 159.694 114.271C158.408 118.503 155.944 122.267 152.599 125.113C149.254 127.96 145.17 129.768 140.837 130.321L140.4 130.377V163.312C140.4 163.961 140.145 164.582 139.694 165.038C139.244 165.494 138.634 165.75 138 165.75C137.366 165.75 136.756 165.494 136.306 165.038C135.855 164.582 135.6 163.961 135.6 163.312V130.383Z" stroke="black"/>
</g>
<defs>
<filter id="filter0_f_1_244" x="0" y="0" width="313" height="311" filterUnits="userSpaceOnUse" color-interpolation-filters="sRGB">
<feFlood flood-opacity="0" result="BackgroundImageFix"/>
<feBlend mode="normal" in="SourceGraphic" in2="BackgroundImageFix" result="shape"/>
<feGaussianBlur stdDeviation="50" result="effect1_foregroundBlur_1_244"/>
</filter>
<filter id="filter1_d_1_244" x="105" y="84" width="66" height="102" filterUnits="userSpaceOnUse" color-interpolation-filters="sRGB">
<feFlood flood-opacity="0" result="BackgroundImageFix"/>
<feColorMatrix in="SourceAlpha" type="matrix" values="0 0 0 0 0 0 0 0 0 0 0 0 0 0 0 0 0 0 127 0" result="hardAlpha"/>
<feOffset dy="4"/>
<feGaussianBlur stdDeviation="2"/>
<feComposite in2="hardAlpha" operator="out"/>
<feColorMatrix type="matrix" values="0 0 0 0 0 0 0 0 0 0 0 0 0 0 0 0 0 0 0.25 0"/>
<feBlend mode="normal" in2="BackgroundImageFix" result="effect1_dropShadow_1_244"/>
<feBlend mode="normal" in="SourceGraphic" in2="effect1_dropShadow_1_244" result="shape"/>
</filter>
<linearGradient id="paint0_linear_1_244" x1="138" y1="141" x2="138" y2="200" gradientUnits="userSpaceOnUse">
<stop stop-color="white"/>
<stop offset="1" stop-color="white" stop-opacity="0.5"/>
</linearGradient>
</defs>
</svg>
